<svg xmlns="http://www.w3.org/2000/svg" viewBox="0 0 400 400">
  <defs>
    <filter id="glow" x="-20%" y="-20%" width="140%" height="140%">
      <feGaussianBlur stdDeviation="3" result="blur"/>
      <feComposite in="SourceGraphic" in2="blur" operator="over"/>
    </filter>
  </defs>
  <rect width="400" height="400" fill="#0A0A0A"/>
  <text x="200" y="40" text-anchor="middle" fill="#F8F8F8" font-family="system-ui" font-size="18" font-weight="600">AUSTRALIAN RETAIL MARKET SHARE</text>
  <path d="M 200 200 L 200 80 A 120 120 0 0 1 320 140 Z" fill="#D4AF37" stroke="#0A0A0A" stroke-width="2"/>
  <path d="M 200 200 L 320 140 A 120 120 0 0 1 320 260 Z" fill="#B8962E" stroke="#0A0A0A" stroke-width="2"/>
  <path d="M 200 200 L 320 260 A 120 120 0 1 1 200 80 Z" fill="#2A2A2A" stroke="#0A0A0A" stroke-width="2"/>
  <text x="260" y="130" text-anchor="middle" fill="#0A0A0A" font-family="system-ui" font-size="14" font-weight="700">WOOLWORTHS</text>
  <text x="260" y="145" text-anchor="middle" fill="#0A0A0A" font-family="system-ui" font-size="12">~37%</text>
  <text x="280" y="210" text-anchor="middle" fill="#0A0A0A" font-family="system-ui" font-size="14" font-weight="700">COLES</text>
  <text x="280" y="225" text-anchor="middle" fill="#0A0A0A" font-family="system-ui" font-size="12">~28%</text>
  <text x="140" y="280" text-anchor="middle" fill="#A1A1AA" font-family="system-ui" font-size="14" font-weight="600">ALL OTHERS</text>
  <text x="140" y="295" text-anchor="middle" fill="#A1A1AA" font-family="system-ui" font-size="12">35% (Fragmented)</text>
  <circle cx="200" cy="200" r="50" fill="#0A0A0A"/>
  <text x="200" y="195" text-anchor="middle" fill="#D4AF37" font-family="system-ui" font-size="20" font-weight="700">65%</text>
  <text x="200" y="210" text-anchor="middle" fill="#A1A1AA" font-family="system-ui" font-size="10">CONTROLLED BY</text>
  <text x="200" y="222" text-anchor="middle" fill="#A1A1AA" font-family="system-ui" font-size="10">TWO PLAYERS</text>
  <text x="200" y="360" text-anchor="middle" fill="#D4AF37" font-family="system-ui" font-size="12" font-weight="600">HIGH CONCENTRATION RISK</text>
</svg>